<?xml version="1.0" encoding="iso-8859-1"?>
<!-- Generator: Adobe Illustrator 19.0.0, SVG Export Plug-In . SVG Version: 6.00 Build 0)  -->
<svg version="1.1" id="Layer_1" xmlns="http://www.w3.org/2000/svg" xmlns:xlink="http://www.w3.org/1999/xlink" x="0px" y="0px"
	 viewBox="0 0 512 512" style="enable-background:new 0 0 512 512;" xml:space="preserve">
<g>
	<g>
		<g>
			<path style="fill:#fff;" d="M93.867,255.81H59.733c-4.719,0-8.533,3.823-8.533,8.533v17.067c0,4.719,3.814,8.533,8.533,8.533
				s8.533-3.814,8.533-8.533v-8.533h17.067v42.667c0,4.719,3.814,8.533,8.533,8.533c4.719,0,8.533-3.814,8.533-8.533v-51.2
				C102.4,259.633,98.586,255.81,93.867,255.81z"/>
			<path style="fill:#fff;" d="M225.382,32.314l9.762,7.091l-4.011,11.187c-1.152,3.217-0.273,6.801,2.227,9.131c1.604,1.493,3.686,2.278,5.803,2.278
				c1.169,0,2.355-0.23,3.465-0.734l13.696-6.067l13.414,6.05c3.115,1.408,6.733,0.819,9.25-1.468s3.439-5.854,2.338-9.071
				l-3.78-11.042l9.421-7.62c2.816-2.278,3.883-6.076,2.671-9.489c-1.203-3.405-4.42-5.683-8.038-5.683h-11.793l-6.178-12.348
				c-2.893-5.786-12.365-5.786-15.266,0l-6.17,12.348H230.4c-3.703,0-6.972,2.381-8.115,5.897
				C221.141,26.289,222.387,30.146,225.382,32.314z M255.095,29.233L256,27.424l0.896,1.809c0.725,1.451,1.835,2.637,3.174,3.447
				c-0.845,1.545-1.203,3.319-0.998,5.094c-0.879-0.299-1.809-0.452-2.722-0.452c-0.887,0-1.758,0.137-2.611,0.41
				c0.341-1.954-0.017-3.942-0.956-5.641C253.73,31.332,254.532,30.359,255.095,29.233z"/>
			<path style="fill:#fff;" d="M42.667,307.01C0.495,307.01,0,416.834,0,417.944c0,20.608,14.686,37.837,34.133,41.805v43.529
				c0,4.719,3.814,8.533,8.533,8.533s8.533-3.814,8.533-8.533v-43.529c19.447-3.968,34.133-21.197,34.133-41.805
				C85.333,416.834,84.838,307.01,42.667,307.01z M42.667,443.543c-14.114,0-25.6-11.477-25.6-25.6
				c0-42.513,11.418-93.867,25.6-93.867c14.182,0,25.6,51.354,25.6,93.867C68.267,432.066,56.781,443.543,42.667,443.543z"/>
			<path style="fill:#fff;" d="M148.582,32.314l9.762,7.091l-4.011,11.187c-1.152,3.217-0.273,6.801,2.227,9.131c1.604,1.493,3.686,2.278,5.803,2.278
				c1.169,0,2.355-0.23,3.465-0.734l13.696-6.067l13.414,6.05c3.106,1.408,6.741,0.819,9.25-1.468
				c2.517-2.287,3.439-5.854,2.338-9.071l-3.78-11.042l9.421-7.62c2.816-2.278,3.883-6.076,2.671-9.489
				c-1.203-3.405-4.42-5.683-8.038-5.683h-11.793l-6.178-12.348c-2.893-5.786-12.365-5.786-15.266,0l-6.17,12.348H153.6
				c-3.703,0-6.972,2.381-8.115,5.897C144.341,26.289,145.587,30.146,148.582,32.314z M178.295,29.233l0.905-1.809l0.896,1.809
				c0.725,1.451,1.835,2.637,3.174,3.447c-0.845,1.545-1.203,3.319-0.998,5.094c-0.879-0.299-1.809-0.452-2.722-0.452
				c-0.887,0-1.758,0.137-2.611,0.41c0.341-1.954-0.017-3.942-0.956-5.641C176.93,31.332,177.732,30.359,178.295,29.233z"/>
			<path style="fill:#fff;" d="M310.716,32.314l9.762,7.091l-4.011,11.187c-1.152,3.217-0.273,6.801,2.227,9.131c1.604,1.493,3.686,2.278,5.803,2.278
				c1.169,0,2.355-0.23,3.465-0.734l13.696-6.067l13.414,6.05c3.115,1.408,6.741,0.819,9.25-1.468
				c2.517-2.287,3.439-5.854,2.338-9.071l-3.78-11.042l9.421-7.62c2.816-2.278,3.883-6.076,2.671-9.489
				c-1.203-3.405-4.42-5.683-8.038-5.683H355.14l-6.178-12.348c-2.893-5.786-12.365-5.786-15.266,0l-6.17,12.348h-11.793
				c-3.703,0-6.972,2.381-8.115,5.897C306.475,26.289,307.721,30.146,310.716,32.314z M340.429,29.233l0.905-1.809l0.896,1.809
				c0.725,1.451,1.835,2.637,3.174,3.447c-0.845,1.545-1.203,3.319-0.998,5.094c-0.879-0.299-1.809-0.452-2.722-0.452
				c-0.887,0-1.758,0.137-2.611,0.41c0.341-1.954-0.017-3.942-0.956-5.641C339.063,31.332,339.866,30.359,340.429,29.233z"/>
			<path style="fill:#fff;" d="M63.249,32.314l9.762,7.091l-4.011,11.187c-1.152,3.217-0.273,6.801,2.227,9.131c1.604,1.493,3.686,2.278,5.803,2.278
				c1.169,0,2.355-0.23,3.465-0.734L94.191,55.2l13.414,6.05c3.106,1.408,6.741,0.819,9.25-1.468
				c2.517-2.287,3.439-5.854,2.338-9.071l-3.78-11.042l9.421-7.62c2.816-2.278,3.883-6.076,2.671-9.489
				c-1.203-3.405-4.42-5.683-8.038-5.683h-11.793l-6.178-12.348c-2.893-5.786-12.365-5.786-15.266,0l-6.17,12.348H68.267
				c-3.703,0-6.972,2.381-8.115,5.897C59.008,26.289,60.254,30.146,63.249,32.314z M92.962,29.233l0.905-1.809l0.896,1.809
				c0.725,1.451,1.835,2.637,3.174,3.447c-0.845,1.545-1.203,3.319-0.998,5.094c-0.879-0.299-1.809-0.452-2.722-0.452
				c-0.887,0-1.758,0.137-2.611,0.41c0.341-1.954-0.017-3.942-0.956-5.641C91.597,31.332,92.399,30.359,92.962,29.233z"/>
			<path style="fill:#fff;" d="M396.049,32.314l9.762,7.091l-4.011,11.187c-1.152,3.217-0.273,6.801,2.227,9.131c1.604,1.493,3.686,2.278,5.803,2.278
				c1.169,0,2.355-0.23,3.464-0.734l13.696-6.067l13.414,6.05c3.115,1.408,6.741,0.819,9.25-1.468
				c2.517-2.287,3.439-5.854,2.338-9.071l-3.78-11.042l9.421-7.62c2.816-2.278,3.883-6.076,2.671-9.489
				c-1.203-3.405-4.42-5.683-8.038-5.683h-11.793l-6.178-12.348c-2.893-5.786-12.365-5.786-15.266,0l-6.17,12.348h-11.793
				c-3.703,0-6.972,2.381-8.115,5.897C391.808,26.289,393.054,30.146,396.049,32.314z M425.762,29.233l0.905-1.809l0.896,1.809
				c0.725,1.451,1.835,2.637,3.174,3.447c-0.845,1.545-1.203,3.319-0.998,5.094c-0.879-0.299-1.809-0.452-2.722-0.452
				c-0.887,0-1.758,0.137-2.611,0.41c0.341-1.954-0.017-3.942-0.956-5.641C424.397,31.332,425.199,30.359,425.762,29.233z"/>
			<path style="fill:#fff;" d="M486.4,460.61c-1.476,0-2.944,0.128-4.386,0.384c-5.879-10.598-17.101-17.451-29.747-17.451
				c-12.646,0-23.868,6.852-29.747,17.451c-1.442-0.256-2.91-0.384-4.386-0.384c-14.114,0-25.6,11.486-25.6,25.6
				c0,14.123,11.486,25.6,25.6,25.6H486.4c14.114,0,25.6-11.477,25.6-25.6C512,472.096,500.514,460.61,486.4,460.61z M486.4,494.743
				h-68.267c-4.71,0-8.533-3.823-8.533-8.533c0-4.702,3.823-8.533,8.533-8.533c1.63,0,3.191,0.469,4.625,1.391
				c2.33,1.51,5.257,1.775,7.834,0.742c2.577-1.05,4.471-3.277,5.111-5.982c1.792-7.782,8.602-13.218,16.563-13.218
				c7.962,0,14.763,5.436,16.563,13.218c0.64,2.705,2.534,4.932,5.111,5.982c2.577,1.033,5.495,0.768,7.834-0.742
				c5.555-3.584,13.158,0.811,13.158,7.142C494.933,490.921,491.11,494.743,486.4,494.743z"/>
			<path style="fill:#fff;" d="M93.867,153.41H59.733c-4.719,0-8.533,3.823-8.533,8.533v51.2c0,4.719,3.814,8.533,8.533,8.533h34.133
				c4.719,0,8.533-3.814,8.533-8.533v-51.2C102.4,157.233,98.586,153.41,93.867,153.41z M85.333,204.61H68.267v-34.133h17.067
				V204.61z"/>
			<path style="fill:#fff;" d="M366.933,119.277c-4.719,0-8.533,3.823-8.533,8.533v324.267c0,4.719,3.814,8.533,8.533,8.533s8.533-3.814,8.533-8.533
				V127.81C375.467,123.1,371.652,119.277,366.933,119.277z"/>
			<path style="fill:#fff;" d="M409.6,315.543c0,4.719,3.814,8.533,8.533,8.533h34.133c4.719,0,8.533-3.814,8.533-8.533v-51.2
				c0-4.71-3.814-8.533-8.533-8.533h-34.133c-4.719,0-8.533,3.823-8.533,8.533V315.543z M426.667,272.877h17.067v34.133h-17.067
				V272.877z"/>
			<path style="fill:#fff;" d="M503.467,68.077c-4.719,0-8.533,3.823-8.533,8.533v8.533H17.067V76.61c0-4.71-3.814-8.533-8.533-8.533S0,71.9,0,76.61
				v204.8c0,4.719,3.814,8.533,8.533,8.533s8.533-3.814,8.533-8.533v-179.2h477.867v341.333c0,4.719,3.814,8.533,8.533,8.533
				c4.719,0,8.533-3.814,8.533-8.533V76.61C512,71.9,508.186,68.077,503.467,68.077z"/>
			<path style="fill:#fff;" d="M409.6,417.944c0,4.719,3.814,8.533,8.533,8.533h34.133c4.719,0,8.533-3.814,8.533-8.533v-51.2
				c0-4.71-3.814-8.533-8.533-8.533h-34.133c-4.719,0-8.533,3.823-8.533,8.533V417.944z M426.667,375.277h17.067v34.133h-17.067
				V375.277z"/>
			<path style="fill:#fff;" d="M418.133,221.677h34.133c4.719,0,8.533-3.814,8.533-8.533v-51.2c0-4.71-3.814-8.533-8.533-8.533h-34.133
				c-4.719,0-8.533,3.823-8.533,8.533v51.2C409.6,217.862,413.414,221.677,418.133,221.677z M426.667,170.477h17.067v34.133h-17.067
				V170.477z"/>
			<path style="fill:#fff;" d="M281.6,221.677h34.133c4.719,0,8.533-3.814,8.533-8.533v-51.2c0-4.71-3.814-8.533-8.533-8.533H281.6
				c-4.719,0-8.533,3.823-8.533,8.533v51.2C273.067,217.862,276.881,221.677,281.6,221.677z M290.133,170.477H307.2v34.133h-17.067
				V170.477z"/>
			<path style="fill:#fff;" d="M153.6,452.077V127.81c0-4.71-3.814-8.533-8.533-8.533s-8.533,3.823-8.533,8.533v324.267
				c0,4.719,3.814,8.533,8.533,8.533S153.6,456.796,153.6,452.077z"/>
			<path style="fill:#fff;" d="M366.933,477.677H128c-4.719,0-8.533,3.823-8.533,8.533v17.067c0,4.719,3.814,8.533,8.533,8.533s8.533-3.814,8.533-8.533
				v-8.533h230.4c4.719,0,8.533-3.814,8.533-8.533C375.467,481.5,371.652,477.677,366.933,477.677z"/>
			<path style="fill:#fff;" d="M187.733,315.543c0,4.719,3.814,8.533,8.533,8.533H230.4c4.719,0,8.533-3.814,8.533-8.533v-51.2
				c0-4.71-3.814-8.533-8.533-8.533h-34.133c-4.719,0-8.533,3.823-8.533,8.533V315.543z M204.8,272.877h17.067v34.133H204.8V272.877
				z"/>
			<path style="fill:#fff;" d="M196.267,221.677H230.4c4.719,0,8.533-3.814,8.533-8.533v-51.2c0-4.71-3.814-8.533-8.533-8.533h-34.133
				c-4.719,0-8.533,3.823-8.533,8.533v51.2C187.733,217.862,191.548,221.677,196.267,221.677z M204.8,170.477h17.067v34.133H204.8
				V170.477z"/>
			<path style="fill:#fff;" d="M170.667,366.743c0,4.719,3.814,8.533,8.533,8.533h8.533v76.8c0,4.719,3.814,8.533,8.533,8.533s8.533-3.814,8.533-8.533
				v-76.8h42.667v34.133c-4.719,0-8.533,3.823-8.533,8.533c0,4.719,3.814,8.533,8.533,8.533v25.6c0,4.719,3.814,8.533,8.533,8.533
				s8.533-3.814,8.533-8.533v-25.6c4.719,0,8.533-3.814,8.533-8.533c0-4.71-3.814-8.533-8.533-8.533v-34.133H307.2v76.8
				c0,4.719,3.814,8.533,8.533,8.533s8.533-3.814,8.533-8.533v-76.8h8.533c4.719,0,8.533-3.814,8.533-8.533
				c0-4.71-3.814-8.533-8.533-8.533H179.2C174.481,358.21,170.667,362.033,170.667,366.743z"/>
			<path style="fill:#fff;" d="M273.067,315.543c0,4.719,3.814,8.533,8.533,8.533h34.133c4.719,0,8.533-3.814,8.533-8.533v-51.2
				c0-4.71-3.814-8.533-8.533-8.533H281.6c-4.719,0-8.533,3.823-8.533,8.533V315.543z M290.133,272.877H307.2v34.133h-17.067
				V272.877z"/>
		</g>
	</g>
</g>
<g>
</g>
<g>
</g>
<g>
</g>
<g>
</g>
<g>
</g>
<g>
</g>
<g>
</g>
<g>
</g>
<g>
</g>
<g>
</g>
<g>
</g>
<g>
</g>
<g>
</g>
<g>
</g>
<g>
</g>
</svg>
