<?xml version="1.0" ?><svg width="32px" height="32px" viewBox="0 0 32 32" id="template" xmlns="http://www.w3.org/2000/svg"><title/><path d="M20.212,26.336a16.829,16.829,0,0,0,5.363-9.713.3.3,0,0,0,.014-.066,25.064,25.064,0,0,0,.431-4.288.358.358,0,0,0,.028-.277c0-.014-.014-.023-.02-.036,0-.258.024-.5.019-.766a35,35,0,0,0-1.466-9.3.354.354,0,0,0-.513-.2C24,1.733,17.5,5.568,15.51,12.962a16.8,16.8,0,0,0-7.471-8.31.356.356,0,0,0-.507.193c-.052.149-4.985,14.684,3.916,21.82A20.244,20.244,0,0,0,6.073,29.72a.355.355,0,0,0,.217.635H25.708a.355.355,0,0,0,.263-.593A14.142,14.142,0,0,0,20.212,26.336Zm-.8-.218a13.022,13.022,0,0,0-2.423-.346,26.621,26.621,0,0,0,.022-7.25A10.06,10.06,0,0,0,22.26,19.86a13.191,13.191,0,0,0,1.7-.109A15.012,15.012,0,0,1,19.408,26.118ZM24.04,2.549a34.941,34.941,0,0,1,1.279,9.287c-1.092.26-5.144.94-7.663-2.337A20.6,20.6,0,0,1,24.04,2.549Zm-6.734,7.633a7.47,7.47,0,0,0,5.893,2.6,10.274,10.274,0,0,0,2.107-.219,24.884,24.884,0,0,1-.37,3.647c-1.134.172-6.3.72-8.766-2.991A16.33,16.33,0,0,1,17.306,10.182Zm5.711,6.885a13.4,13.4,0,0,0,1.77-.117,19.422,19.422,0,0,1-.553,2.043c-.792.131-4.655.636-7.378-1.432a21.829,21.829,0,0,0-.879-3.4C17.93,16.582,20.941,17.067,23.017,17.067ZM8.072,5.487a16.139,16.139,0,0,1,7.172,8.634.347.347,0,0,0,.063.2,21.141,21.141,0,0,1,.934,3.666,25.5,25.5,0,0,1,.029,7.77,13.448,13.448,0,0,0-1.745.128l1.395-3.42A.356.356,0,0,0,15.709,22l-2.832-.989L9.764,10.136a.358.358,0,0,0-.439-.243.354.354,0,0,0-.243.438l4.5,15.718c-.438.092-.884.2-1.34.342C4.1,20.316,7.346,7.9,8.072,5.487Zm5.99,19.659-.947-3.3,2.008.7Zm-6.7,4.5a18.6,18.6,0,0,1,4.9-2.539.406.406,0,0,0,.059-.019,13.221,13.221,0,0,1,4.132-.674.325.325,0,0,0,.043.018c.029,0,.051-.015.078-.017a12.113,12.113,0,0,1,2.749.347.356.356,0,0,0,.2.072c.012,0,.022-.01.033-.011a13.293,13.293,0,0,1,5.267,2.823Z"/></svg>