<?xml version="1.0" encoding="UTF-8" standalone="no"?>
<svg width="63px" height="63px" viewBox="-12 0 63 63" version="1.1" xmlns="http://www.w3.org/2000/svg" xmlns:xlink="http://www.w3.org/1999/xlink" xmlns:sketch="http://www.bohemiancoding.com/sketch/ns">
    
    <title>zeppelin</title>
    <desc>Created with Sketch.</desc>
    <defs></defs>
    <g id="Page-1" stroke="none" stroke-width="1" fill="none" fill-rule="evenodd" sketch:type="MSPage">
        <g id="zeppelin" sketch:type="MSLayerGroup" transform="translate(1.000000, 1.000000)" stroke="#fff" stroke-width="1">
            <path d="M37,15.9 C37,7.8 26.6,0 18.5,0 C10.4,0 0,7.8 0,15.9 C0,31.5 13.1,39.1 13.1,44 L24,44 C24,40.1 37,31.5 37,15.9 L37,15.9 Z" id="Shape" sketch:type="MSShapeGroup"></path>
            <path d="M15,44.3 L15,51" id="Shape" sketch:type="MSShapeGroup"></path>
            <path d="M22,44.3 L22,51" id="Shape" sketch:type="MSShapeGroup"></path>
            <path d="M25,59 C25,60.1 24,61 22.8,61 L14.1,61 C12.9,61 11.9,60.1 11.9,59 L11.9,53 C11.9,51.9 12.9,51 14.1,51 L22.8,51 C24,51 25,51.9 25,53 L25,59 L25,59 Z" id="Shape" sketch:type="MSShapeGroup"></path>
            <path d="M14,55 L16.9,55" id="Shape" sketch:type="MSShapeGroup"></path>
            <path d="M20.1,55 L23,55" id="Shape" sketch:type="MSShapeGroup"></path>
            <path d="M14,58 L16.9,58" id="Shape" sketch:type="MSShapeGroup"></path>
            <path d="M20.1,58 L23,58" id="Shape" sketch:type="MSShapeGroup"></path>
            <path d="M11.6,1.6 C11.6,1.6 1.3,11.8 15.5,39.4 C15.5,39.4 16.5,42.1 16.5,44.1" id="Shape" sketch:type="MSShapeGroup"></path>
            <path d="M25.3,1.6 C25.3,1.6 35.7,11.2 21.4,39.4 C21.4,39.4 20.4,42.1 20.4,44.1" id="Shape" sketch:type="MSShapeGroup"></path>
        </g>
    </g>
</svg>