<?xml version="1.0" encoding="utf-8"?>
<svg xmlns="http://www.w3.org/2000/svg" xmlns:xlink="http://www.w3.org/1999/xlink" style="margin: auto; background: rgb(255, 255, 255); display: block; shape-rendering: auto;" width="444px" height="444px" viewBox="0 0 100 100" preserveAspectRatio="xMidYMid">
<g transform="rotate(0 50 50)">
  <rect x="49.5" y="28.5" rx="0.25" ry="0.25" width="1" height="5" fill="#0051a2">
    <animate attributeName="opacity" values="1;0" keyTimes="0;1" dur="4.545454545454546s" begin="-4.4421487603305785s" repeatCount="indefinite"></animate>
  </rect>
</g><g transform="rotate(8.181818181818182 50 50)">
  <rect x="49.5" y="28.5" rx="0.25" ry="0.25" width="1" height="5" fill="#0051a2">
    <animate attributeName="opacity" values="1;0" keyTimes="0;1" dur="4.545454545454546s" begin="-4.338842975206612s" repeatCount="indefinite"></animate>
  </rect>
</g><g transform="rotate(16.363636363636363 50 50)">
  <rect x="49.5" y="28.5" rx="0.25" ry="0.25" width="1" height="5" fill="#0051a2">
    <animate attributeName="opacity" values="1;0" keyTimes="0;1" dur="4.545454545454546s" begin="-4.235537190082645s" repeatCount="indefinite"></animate>
  </rect>
</g><g transform="rotate(24.545454545454547 50 50)">
  <rect x="49.5" y="28.5" rx="0.25" ry="0.25" width="1" height="5" fill="#0051a2">
    <animate attributeName="opacity" values="1;0" keyTimes="0;1" dur="4.545454545454546s" begin="-4.132231404958678s" repeatCount="indefinite"></animate>
  </rect>
</g><g transform="rotate(32.72727272727273 50 50)">
  <rect x="49.5" y="28.5" rx="0.25" ry="0.25" width="1" height="5" fill="#0051a2">
    <animate attributeName="opacity" values="1;0" keyTimes="0;1" dur="4.545454545454546s" begin="-4.028925619834711s" repeatCount="indefinite"></animate>
  </rect>
</g><g transform="rotate(40.90909090909091 50 50)">
  <rect x="49.5" y="28.5" rx="0.25" ry="0.25" width="1" height="5" fill="#0051a2">
    <animate attributeName="opacity" values="1;0" keyTimes="0;1" dur="4.545454545454546s" begin="-3.925619834710744s" repeatCount="indefinite"></animate>
  </rect>
</g><g transform="rotate(49.09090909090909 50 50)">
  <rect x="49.5" y="28.5" rx="0.25" ry="0.25" width="1" height="5" fill="#0051a2">
    <animate attributeName="opacity" values="1;0" keyTimes="0;1" dur="4.545454545454546s" begin="-3.822314049586777s" repeatCount="indefinite"></animate>
  </rect>
</g><g transform="rotate(57.27272727272727 50 50)">
  <rect x="49.5" y="28.5" rx="0.25" ry="0.25" width="1" height="5" fill="#0051a2">
    <animate attributeName="opacity" values="1;0" keyTimes="0;1" dur="4.545454545454546s" begin="-3.71900826446281s" repeatCount="indefinite"></animate>
  </rect>
</g><g transform="rotate(65.45454545454545 50 50)">
  <rect x="49.5" y="28.5" rx="0.25" ry="0.25" width="1" height="5" fill="#0051a2">
    <animate attributeName="opacity" values="1;0" keyTimes="0;1" dur="4.545454545454546s" begin="-3.615702479338843s" repeatCount="indefinite"></animate>
  </rect>
</g><g transform="rotate(73.63636363636364 50 50)">
  <rect x="49.5" y="28.5" rx="0.25" ry="0.25" width="1" height="5" fill="#0051a2">
    <animate attributeName="opacity" values="1;0" keyTimes="0;1" dur="4.545454545454546s" begin="-3.512396694214876s" repeatCount="indefinite"></animate>
  </rect>
</g><g transform="rotate(81.81818181818181 50 50)">
  <rect x="49.5" y="28.5" rx="0.25" ry="0.25" width="1" height="5" fill="#0051a2">
    <animate attributeName="opacity" values="1;0" keyTimes="0;1" dur="4.545454545454546s" begin="-3.409090909090909s" repeatCount="indefinite"></animate>
  </rect>
</g><g transform="rotate(90 50 50)">
  <rect x="49.5" y="28.5" rx="0.25" ry="0.25" width="1" height="5" fill="#0051a2">
    <animate attributeName="opacity" values="1;0" keyTimes="0;1" dur="4.545454545454546s" begin="-3.3057851239669422s" repeatCount="indefinite"></animate>
  </rect>
</g><g transform="rotate(98.18181818181819 50 50)">
  <rect x="49.5" y="28.5" rx="0.25" ry="0.25" width="1" height="5" fill="#0051a2">
    <animate attributeName="opacity" values="1;0" keyTimes="0;1" dur="4.545454545454546s" begin="-3.2024793388429753s" repeatCount="indefinite"></animate>
  </rect>
</g><g transform="rotate(106.36363636363636 50 50)">
  <rect x="49.5" y="28.5" rx="0.25" ry="0.25" width="1" height="5" fill="#0051a2">
    <animate attributeName="opacity" values="1;0" keyTimes="0;1" dur="4.545454545454546s" begin="-3.0991735537190084s" repeatCount="indefinite"></animate>
  </rect>
</g><g transform="rotate(114.54545454545455 50 50)">
  <rect x="49.5" y="28.5" rx="0.25" ry="0.25" width="1" height="5" fill="#0051a2">
    <animate attributeName="opacity" values="1;0" keyTimes="0;1" dur="4.545454545454546s" begin="-2.9958677685950414s" repeatCount="indefinite"></animate>
  </rect>
</g><g transform="rotate(122.72727272727273 50 50)">
  <rect x="49.5" y="28.5" rx="0.25" ry="0.25" width="1" height="5" fill="#0051a2">
    <animate attributeName="opacity" values="1;0" keyTimes="0;1" dur="4.545454545454546s" begin="-2.8925619834710745s" repeatCount="indefinite"></animate>
  </rect>
</g><g transform="rotate(130.9090909090909 50 50)">
  <rect x="49.5" y="28.5" rx="0.25" ry="0.25" width="1" height="5" fill="#0051a2">
    <animate attributeName="opacity" values="1;0" keyTimes="0;1" dur="4.545454545454546s" begin="-2.7892561983471076s" repeatCount="indefinite"></animate>
  </rect>
</g><g transform="rotate(139.0909090909091 50 50)">
  <rect x="49.5" y="28.5" rx="0.25" ry="0.25" width="1" height="5" fill="#0051a2">
    <animate attributeName="opacity" values="1;0" keyTimes="0;1" dur="4.545454545454546s" begin="-2.6859504132231407s" repeatCount="indefinite"></animate>
  </rect>
</g><g transform="rotate(147.27272727272728 50 50)">
  <rect x="49.5" y="28.5" rx="0.25" ry="0.25" width="1" height="5" fill="#0051a2">
    <animate attributeName="opacity" values="1;0" keyTimes="0;1" dur="4.545454545454546s" begin="-2.5826446280991737s" repeatCount="indefinite"></animate>
  </rect>
</g><g transform="rotate(155.45454545454547 50 50)">
  <rect x="49.5" y="28.5" rx="0.25" ry="0.25" width="1" height="5" fill="#0051a2">
    <animate attributeName="opacity" values="1;0" keyTimes="0;1" dur="4.545454545454546s" begin="-2.479338842975207s" repeatCount="indefinite"></animate>
  </rect>
</g><g transform="rotate(163.63636363636363 50 50)">
  <rect x="49.5" y="28.5" rx="0.25" ry="0.25" width="1" height="5" fill="#0051a2">
    <animate attributeName="opacity" values="1;0" keyTimes="0;1" dur="4.545454545454546s" begin="-2.37603305785124s" repeatCount="indefinite"></animate>
  </rect>
</g><g transform="rotate(171.8181818181818 50 50)">
  <rect x="49.5" y="28.5" rx="0.25" ry="0.25" width="1" height="5" fill="#0051a2">
    <animate attributeName="opacity" values="1;0" keyTimes="0;1" dur="4.545454545454546s" begin="-2.272727272727273s" repeatCount="indefinite"></animate>
  </rect>
</g><g transform="rotate(180 50 50)">
  <rect x="49.5" y="28.5" rx="0.25" ry="0.25" width="1" height="5" fill="#0051a2">
    <animate attributeName="opacity" values="1;0" keyTimes="0;1" dur="4.545454545454546s" begin="-2.169421487603306s" repeatCount="indefinite"></animate>
  </rect>
</g><g transform="rotate(188.1818181818182 50 50)">
  <rect x="49.5" y="28.5" rx="0.25" ry="0.25" width="1" height="5" fill="#0051a2">
    <animate attributeName="opacity" values="1;0" keyTimes="0;1" dur="4.545454545454546s" begin="-2.066115702479339s" repeatCount="indefinite"></animate>
  </rect>
</g><g transform="rotate(196.36363636363637 50 50)">
  <rect x="49.5" y="28.5" rx="0.25" ry="0.25" width="1" height="5" fill="#0051a2">
    <animate attributeName="opacity" values="1;0" keyTimes="0;1" dur="4.545454545454546s" begin="-1.962809917355372s" repeatCount="indefinite"></animate>
  </rect>
</g><g transform="rotate(204.54545454545453 50 50)">
  <rect x="49.5" y="28.5" rx="0.25" ry="0.25" width="1" height="5" fill="#0051a2">
    <animate attributeName="opacity" values="1;0" keyTimes="0;1" dur="4.545454545454546s" begin="-1.859504132231405s" repeatCount="indefinite"></animate>
  </rect>
</g><g transform="rotate(212.72727272727272 50 50)">
  <rect x="49.5" y="28.5" rx="0.25" ry="0.25" width="1" height="5" fill="#0051a2">
    <animate attributeName="opacity" values="1;0" keyTimes="0;1" dur="4.545454545454546s" begin="-1.756198347107438s" repeatCount="indefinite"></animate>
  </rect>
</g><g transform="rotate(220.9090909090909 50 50)">
  <rect x="49.5" y="28.5" rx="0.25" ry="0.25" width="1" height="5" fill="#0051a2">
    <animate attributeName="opacity" values="1;0" keyTimes="0;1" dur="4.545454545454546s" begin="-1.6528925619834711s" repeatCount="indefinite"></animate>
  </rect>
</g><g transform="rotate(229.0909090909091 50 50)">
  <rect x="49.5" y="28.5" rx="0.25" ry="0.25" width="1" height="5" fill="#0051a2">
    <animate attributeName="opacity" values="1;0" keyTimes="0;1" dur="4.545454545454546s" begin="-1.5495867768595042s" repeatCount="indefinite"></animate>
  </rect>
</g><g transform="rotate(237.27272727272728 50 50)">
  <rect x="49.5" y="28.5" rx="0.25" ry="0.25" width="1" height="5" fill="#0051a2">
    <animate attributeName="opacity" values="1;0" keyTimes="0;1" dur="4.545454545454546s" begin="-1.4462809917355373s" repeatCount="indefinite"></animate>
  </rect>
</g><g transform="rotate(245.45454545454547 50 50)">
  <rect x="49.5" y="28.5" rx="0.25" ry="0.25" width="1" height="5" fill="#0051a2">
    <animate attributeName="opacity" values="1;0" keyTimes="0;1" dur="4.545454545454546s" begin="-1.3429752066115703s" repeatCount="indefinite"></animate>
  </rect>
</g><g transform="rotate(253.63636363636363 50 50)">
  <rect x="49.5" y="28.5" rx="0.25" ry="0.25" width="1" height="5" fill="#0051a2">
    <animate attributeName="opacity" values="1;0" keyTimes="0;1" dur="4.545454545454546s" begin="-1.2396694214876034s" repeatCount="indefinite"></animate>
  </rect>
</g><g transform="rotate(261.8181818181818 50 50)">
  <rect x="49.5" y="28.5" rx="0.25" ry="0.25" width="1" height="5" fill="#0051a2">
    <animate attributeName="opacity" values="1;0" keyTimes="0;1" dur="4.545454545454546s" begin="-1.1363636363636365s" repeatCount="indefinite"></animate>
  </rect>
</g><g transform="rotate(270 50 50)">
  <rect x="49.5" y="28.5" rx="0.25" ry="0.25" width="1" height="5" fill="#0051a2">
    <animate attributeName="opacity" values="1;0" keyTimes="0;1" dur="4.545454545454546s" begin="-1.0330578512396695s" repeatCount="indefinite"></animate>
  </rect>
</g><g transform="rotate(278.1818181818182 50 50)">
  <rect x="49.5" y="28.5" rx="0.25" ry="0.25" width="1" height="5" fill="#0051a2">
    <animate attributeName="opacity" values="1;0" keyTimes="0;1" dur="4.545454545454546s" begin="-0.9297520661157025s" repeatCount="indefinite"></animate>
  </rect>
</g><g transform="rotate(286.3636363636364 50 50)">
  <rect x="49.5" y="28.5" rx="0.25" ry="0.25" width="1" height="5" fill="#0051a2">
    <animate attributeName="opacity" values="1;0" keyTimes="0;1" dur="4.545454545454546s" begin="-0.8264462809917356s" repeatCount="indefinite"></animate>
  </rect>
</g><g transform="rotate(294.54545454545456 50 50)">
  <rect x="49.5" y="28.5" rx="0.25" ry="0.25" width="1" height="5" fill="#0051a2">
    <animate attributeName="opacity" values="1;0" keyTimes="0;1" dur="4.545454545454546s" begin="-0.7231404958677686s" repeatCount="indefinite"></animate>
  </rect>
</g><g transform="rotate(302.72727272727275 50 50)">
  <rect x="49.5" y="28.5" rx="0.25" ry="0.25" width="1" height="5" fill="#0051a2">
    <animate attributeName="opacity" values="1;0" keyTimes="0;1" dur="4.545454545454546s" begin="-0.6198347107438017s" repeatCount="indefinite"></animate>
  </rect>
</g><g transform="rotate(310.90909090909093 50 50)">
  <rect x="49.5" y="28.5" rx="0.25" ry="0.25" width="1" height="5" fill="#0051a2">
    <animate attributeName="opacity" values="1;0" keyTimes="0;1" dur="4.545454545454546s" begin="-0.5165289256198348s" repeatCount="indefinite"></animate>
  </rect>
</g><g transform="rotate(319.09090909090907 50 50)">
  <rect x="49.5" y="28.5" rx="0.25" ry="0.25" width="1" height="5" fill="#0051a2">
    <animate attributeName="opacity" values="1;0" keyTimes="0;1" dur="4.545454545454546s" begin="-0.4132231404958678s" repeatCount="indefinite"></animate>
  </rect>
</g><g transform="rotate(327.27272727272725 50 50)">
  <rect x="49.5" y="28.5" rx="0.25" ry="0.25" width="1" height="5" fill="#0051a2">
    <animate attributeName="opacity" values="1;0" keyTimes="0;1" dur="4.545454545454546s" begin="-0.30991735537190085s" repeatCount="indefinite"></animate>
  </rect>
</g><g transform="rotate(335.45454545454544 50 50)">
  <rect x="49.5" y="28.5" rx="0.25" ry="0.25" width="1" height="5" fill="#0051a2">
    <animate attributeName="opacity" values="1;0" keyTimes="0;1" dur="4.545454545454546s" begin="-0.2066115702479339s" repeatCount="indefinite"></animate>
  </rect>
</g><g transform="rotate(343.6363636363636 50 50)">
  <rect x="49.5" y="28.5" rx="0.25" ry="0.25" width="1" height="5" fill="#0051a2">
    <animate attributeName="opacity" values="1;0" keyTimes="0;1" dur="4.545454545454546s" begin="-0.10330578512396695s" repeatCount="indefinite"></animate>
  </rect>
</g><g transform="rotate(351.8181818181818 50 50)">
  <rect x="49.5" y="28.5" rx="0.25" ry="0.25" width="1" height="5" fill="#0051a2">
    <animate attributeName="opacity" values="1;0" keyTimes="0;1" dur="4.545454545454546s" begin="0s" repeatCount="indefinite"></animate>
  </rect>
</g>
<!-- [ldio] generated by https://loading.io/ --></svg>